<svg width="544" height="439" viewBox="0 0 544 439" fill="none" xmlns="http://www.w3.org/2000/svg">
<g clip-path="url(#clip0_7_147)">
<path d="M527.448 387.343C541.304 374.297 548.449 354.754 541.004 338.222C530.167 354.857 512.327 367.959 491.643 374.471C483.587 377.008 474.322 379.1 469.94 385.498C467.213 389.48 467.015 394.465 468.243 398.973C469.472 403.481 472.001 407.628 474.506 411.718L474.52 412.874C494.128 407.885 513.591 400.389 527.448 387.343Z" fill="#F2F2F2"/>
<path d="M540.588 338.31C538.252 352.707 530.607 366.548 518.918 376.983C516.381 379.343 513.502 381.306 510.378 382.806C507.163 384.23 503.659 384.878 500.148 384.697C496.84 384.592 493.471 384.151 490.192 384.746C488.583 385.029 487.049 385.633 485.679 386.523C484.31 387.412 483.134 388.569 482.222 389.924C480.047 393.122 479.326 396.808 478.764 400.433C478.14 404.459 477.565 408.649 474.915 412.112C474.594 412.532 475.362 412.94 475.683 412.521C480.294 406.496 478.751 398.796 481.862 392.298C483.314 389.266 485.826 386.596 489.582 385.681C492.866 384.88 496.341 385.332 499.688 385.463C503.12 385.681 506.558 385.162 509.771 383.939C512.971 382.584 515.931 380.721 518.537 378.422C524.243 373.545 529.119 367.773 532.973 361.332C537.251 354.276 540.141 346.468 541.488 338.326C541.569 337.829 540.668 337.816 540.588 338.31Z" fill="white"/>
<path d="M522.923 373.765C525.303 375.24 528.083 375.937 530.877 375.759C533.671 375.58 536.34 374.535 538.513 372.769C538.924 372.415 538.31 371.843 537.898 372.197C535.878 373.845 533.392 374.818 530.791 374.98C528.189 375.141 525.602 374.483 523.394 373.098C522.928 372.799 522.46 373.468 522.923 373.765Z" fill="white"/>
<path d="M501.817 384.942C501.354 382.427 501.429 379.843 502.036 377.359C502.644 374.875 503.771 372.548 505.343 370.531C505.662 370.111 504.894 369.702 504.575 370.122C502.944 372.224 501.777 374.648 501.15 377.234C500.524 379.82 500.452 382.509 500.941 385.125C501.037 385.622 501.912 385.437 501.817 384.942Z" fill="white"/>
<path d="M536.11 354.066C535.128 353.716 534.251 353.12 533.563 352.336C532.876 351.552 532.4 350.605 532.181 349.585C532.092 349.086 531.217 349.272 531.305 349.767C531.552 350.892 532.078 351.937 532.836 352.805C533.594 353.673 534.558 354.336 535.639 354.733C535.742 354.784 535.859 354.8 535.971 354.776C536.084 354.753 536.185 354.692 536.258 354.604C536.288 354.56 536.309 354.51 536.317 354.458C536.326 354.405 536.323 354.352 536.309 354.3C536.295 354.249 536.27 354.202 536.236 354.161C536.201 354.121 536.158 354.088 536.11 354.066Z" fill="white"/>
<path d="M475.297 319.425C475.342 319.738 475.387 320.05 475.427 320.367C476.011 324.565 476.201 328.808 475.995 333.041C475.985 333.368 475.969 333.7 475.948 334.026C475.296 344.325 472.489 354.372 467.71 363.518C465.766 367.251 463.521 370.821 460.997 374.19C457.48 378.891 453.237 383.746 451.756 389.026C451.595 389.574 451.473 390.132 451.391 390.696L472.895 412.799C472.973 412.828 473.045 412.862 473.124 412.891L473.936 413.807C474.081 413.64 474.228 413.463 474.373 413.296C474.458 413.199 474.538 413.097 474.623 413C474.678 412.934 474.733 412.867 474.787 412.81C474.805 412.788 474.823 412.766 474.836 412.749C474.89 412.692 474.933 412.634 474.982 412.581C475.805 411.596 476.621 410.604 477.431 409.606C477.437 409.602 477.437 409.602 477.438 409.592C483.587 401.971 489.059 393.837 492.935 385.241C493.052 384.982 493.174 384.719 493.281 384.45C494.993 380.597 496.349 376.594 497.33 372.492C497.854 370.265 498.248 368.01 498.511 365.737C499.174 359.871 498.771 353.933 497.322 348.211C494.426 336.745 487.342 326.211 476.157 319.9C475.871 319.739 475.589 319.582 475.297 319.425Z" fill="#F2F2F2"/>
<path d="M475.022 319.712C483.133 332.429 486.62 347.48 484.518 361.926C484.137 365.106 483.195 368.193 481.735 371.043C480.11 373.907 477.74 376.278 474.877 377.904C472.163 379.55 469.168 380.961 466.962 383.152C465.877 384.218 465.059 385.527 464.577 386.97C464.094 388.413 463.96 389.95 464.186 391.455C464.666 395.146 466.643 398.466 468.707 401.655C470.999 405.196 473.444 408.842 473.727 412.994C473.762 413.497 474.658 413.421 474.624 412.919C474.13 405.696 467.563 400.354 465.544 393.539C464.602 390.359 464.758 386.912 467.122 384.217C469.19 381.86 472.277 380.403 475.041 378.757C477.867 377.196 480.268 374.967 482.035 372.265C483.655 369.497 484.733 366.446 485.211 363.274C486.385 356.248 486.279 349.066 484.896 342.078C483.323 333.959 480.22 326.213 475.753 319.254C475.472 318.815 474.744 319.276 475.022 319.712Z" fill="white"/>
<path d="M485.487 357.262C491.376 357.208 496.402 353.369 497.244 348.311C497.327 347.813 496.44 347.678 496.357 348.177C495.568 352.915 490.906 356.433 485.4 356.483C484.821 356.488 484.91 357.267 485.487 357.262Z" fill="white"/>
<path d="M476.379 377.227C474.342 375.604 472.656 373.583 471.423 371.288C470.191 368.993 469.437 366.472 469.209 363.876C469.172 363.374 468.276 363.449 468.312 363.951C468.556 366.652 469.346 369.275 470.635 371.661C471.923 374.047 473.682 376.146 475.807 377.831C476.228 378.178 476.799 377.572 476.379 377.227Z" fill="white"/>
<path d="M482.365 334.635C481.277 334.856 480.153 334.834 479.074 334.571C477.995 334.308 476.987 333.81 476.122 333.112C475.706 332.761 475.136 333.367 475.55 333.716C476.508 334.483 477.622 335.031 478.814 335.325C480.005 335.618 481.247 335.648 482.451 335.414C482.69 335.367 482.879 335.216 482.856 334.987C482.835 334.877 482.772 334.779 482.681 334.713C482.589 334.648 482.476 334.62 482.365 334.635Z" fill="white"/>
<path d="M442.694 151.967C452.876 151.967 461.13 143.712 461.13 133.529C461.13 123.345 452.876 115.09 442.694 115.09C432.511 115.09 424.257 123.345 424.257 133.529C424.257 143.712 432.511 151.967 442.694 151.967Z" fill="#A0616A"/>
<path d="M523.481 218.714C520.89 212.698 517.332 207.146 512.948 202.28C516.66 208.197 518.782 214.973 519.107 221.951C517.763 222.791 516.357 223.526 514.901 224.151C510.524 225.987 505.858 227.036 501.117 227.248C498.562 218.734 494.151 210.892 488.203 204.286C492.489 211.123 494.645 219.082 494.395 227.148C489.107 226.691 483.897 225.574 478.886 223.824C471.362 221.235 464.059 217.369 458.856 211.356C453.225 204.848 450.449 196.26 449.553 187.698C448.657 179.144 449.5 170.509 450.349 161.947C450.75 157.867 447.353 153.172 447.754 149.092H448.022C449.807 146.644 451.626 144.135 452.503 141.232C453.372 138.336 453.145 134.918 451.145 132.638C450.024 131.446 448.611 130.569 447.045 130.096C446.898 129.909 446.738 129.728 446.57 129.547C443.542 126.33 439.978 123.664 436.037 121.668C438.879 123.815 440.779 126.243 441.661 128.751C439.2 128.21 436.739 127.67 434.278 127.133C433.456 126.26 432.589 125.43 431.683 124.645C430.634 123.794 429.523 123.023 428.359 122.337C429.628 123.453 430.612 124.857 431.228 126.43C428.065 125.635 424.902 124.437 423.256 121.715C420.528 117.213 423.771 111.14 428.299 108.451C431.593 106.591 435.388 105.812 439.148 106.226C442.908 106.64 446.442 108.226 449.252 110.759C455.8 105.936 465.123 106.017 472.406 109.622C477.214 112.108 481.356 115.712 484.484 120.13C482.669 119.897 480.843 119.77 479.013 119.748C481.589 120.125 484.041 121.096 486.176 122.584C487.121 124.051 487.987 125.567 488.771 127.126C489.286 128.149 489.772 129.186 490.229 130.236C493.031 136.617 494.857 143.413 496.75 150.128C498.957 157.954 501.324 165.833 505.457 172.836C511.794 183.485 521.791 191.462 533.58 195.277C534.563 204.126 530.243 212.781 523.481 218.714Z" fill="#2F2E41"/>
<path d="M480.697 418.491L474.006 421.607L458.804 397.274L468.681 392.675L480.697 418.491Z" fill="#A0616A"/>
<path d="M489.628 428.443L484.828 430.678L481.862 426.545L481.778 432.098L469.049 438.024C468.439 438.308 467.754 438.39 467.094 438.257C466.434 438.124 465.834 437.784 465.382 437.286C464.929 436.788 464.647 436.158 464.578 435.489C464.508 434.819 464.654 434.145 464.995 433.565L471.892 421.811L469.759 417.23L480.748 412.89L489.628 428.443Z" fill="#2F2E41"/>
<path d="M413.515 425.527H406.133L402.62 397.052H413.515V425.527Z" fill="#A0616A"/>
<path d="M417.411 438.319H412.117L411.172 433.32L408.752 438.319H394.712C394.039 438.319 393.383 438.104 392.841 437.705C392.299 437.306 391.898 436.744 391.698 436.102C391.498 435.459 391.508 434.769 391.728 434.133C391.947 433.497 392.364 432.947 392.918 432.565L404.13 424.82V419.767L415.924 420.471L417.411 438.319Z" fill="#2F2E41"/>
<path d="M447.611 209.758L441.495 228.422L439.473 243.551L406.985 233.519L409.99 199.76L416.747 193.074L447.611 209.758Z" fill="#A0616A"/>
<path d="M136.582 35.2315C138.394 32.5076 137.322 28.6083 134.187 26.5223C131.052 24.4363 127.041 24.9534 125.229 27.6774C123.417 30.4013 124.49 34.3005 127.625 36.3865C130.76 38.4725 134.77 37.9554 136.582 35.2315Z" fill="#FD6584"/>
<path d="M202.479 262.188C204.291 259.464 203.219 255.565 200.084 253.479C196.949 251.393 192.938 251.91 191.126 254.634C189.314 257.358 190.387 261.257 193.522 263.343C196.657 265.429 200.667 264.912 202.479 262.188Z" fill="#E6E6E6"/>
<path d="M17.8934 67.5485C19.7055 64.8245 18.6329 60.9253 15.4979 58.8393C12.3628 56.7533 8.35236 57.2704 6.54032 59.9943C4.72829 62.7183 5.80082 66.6175 8.93589 68.7035C12.071 70.7895 16.0814 70.2724 17.8934 67.5485Z" fill="#E6E6E6"/>
<path d="M250.543 229.021H27.6731C20.3363 229.012 13.3024 226.094 8.11446 220.905C2.92656 215.717 0.00833187 208.682 0 201.345V105.534C0.00828417 98.1961 2.92649 91.1614 8.11441 85.9729C13.3023 80.7844 20.3363 77.8659 27.6731 77.8576C98.7894 58.153 173.377 59.999 250.543 77.8576C257.88 77.8659 264.914 80.7844 270.102 85.9729C275.29 91.1614 278.208 98.1961 278.216 105.534V201.345C278.208 208.682 275.29 215.717 270.102 220.905C264.914 226.094 257.88 229.012 250.543 229.021Z" fill="#F2F2F2"/>
<path d="M23.742 204.607C23.6542 204.607 23.5672 204.59 23.4861 204.556C23.4049 204.523 23.3312 204.474 23.2691 204.411C23.207 204.349 23.1577 204.276 23.1241 204.194C23.0905 204.113 23.0732 204.026 23.0732 203.938V102.94C23.0732 102.763 23.1437 102.592 23.2691 102.467C23.3945 102.342 23.5647 102.271 23.742 102.271C23.9194 102.271 24.0895 102.342 24.2149 102.467C24.3404 102.592 24.4108 102.763 24.4108 102.94V203.938C24.4108 204.026 24.3936 204.113 24.36 204.194C24.3264 204.276 24.2771 204.349 24.215 204.411C24.1529 204.474 24.0791 204.523 23.998 204.556C23.9168 204.59 23.8299 204.607 23.742 204.607Z" fill="white"/>
<path d="M255.812 204.607C255.9 204.607 255.987 204.59 256.068 204.556C256.149 204.523 256.223 204.474 256.285 204.411C256.347 204.349 256.396 204.276 256.43 204.194C256.463 204.113 256.481 204.026 256.481 203.938V102.94C256.481 102.763 256.41 102.592 256.285 102.467C256.159 102.342 255.989 102.271 255.812 102.271C255.634 102.271 255.464 102.342 255.339 102.467C255.213 102.592 255.143 102.763 255.143 102.94V203.938C255.143 204.026 255.16 204.113 255.194 204.194C255.228 204.276 255.277 204.349 255.339 204.411C255.401 204.474 255.475 204.523 255.556 204.556C255.637 204.59 255.724 204.607 255.812 204.607Z" fill="white"/>
<path d="M211.672 124.344H211.669C211.492 124.343 211.322 124.272 211.197 124.146C211.072 124.02 211.002 123.85 211.003 123.672L211.337 21.3363C211.338 21.1593 211.409 20.9898 211.534 20.8648C211.659 20.7399 211.829 20.6698 212.006 20.6697H212.008C212.186 20.6703 212.356 20.7414 212.481 20.8672C212.606 20.9931 212.676 21.1635 212.675 21.3408L212.341 123.677C212.34 123.854 212.269 124.024 212.144 124.148C212.018 124.273 211.849 124.344 211.672 124.344Z" fill="#3F3D56"/>
<path d="M126.067 270.825H126.064C125.887 270.824 125.717 270.753 125.592 270.627C125.467 270.502 125.397 270.331 125.398 270.154L125.732 170.493C125.733 170.316 125.804 170.146 125.929 170.021C126.054 169.897 126.224 169.826 126.401 169.826H126.403C126.581 169.827 126.751 169.898 126.876 170.024C127.001 170.15 127.071 170.32 127.07 170.498L126.736 270.158C126.735 270.335 126.664 270.505 126.539 270.63C126.414 270.755 126.244 270.825 126.067 270.825Z" fill="#3F3D56"/>
<path d="M62.5318 143.072H62.5295C62.3521 143.071 62.1823 143 62.0573 142.874C61.9323 142.748 61.8624 142.578 61.863 142.401L62.1974 41.4022C62.198 41.2252 62.2688 41.0557 62.3941 40.9308C62.5195 40.8058 62.6892 40.7357 62.8662 40.7356H62.8684C63.0458 40.7362 63.2157 40.8073 63.3407 40.9332C63.4657 41.059 63.5355 41.2294 63.535 41.4068L63.2006 142.405C63.1999 142.582 63.1292 142.752 63.0038 142.877C62.8785 143.002 62.7087 143.072 62.5318 143.072Z" fill="#3F3D56"/>
<path d="M34.9169 169.96C36.2048 163.005 44.1106 159.799 50.5165 160.343C59.671 161.122 67.3112 167.149 75.8314 169.991C79.9487 171.364 84.3785 172.118 88.6931 171.328C92.0944 170.627 95.2482 169.035 97.8315 166.714C102.785 162.479 106.135 156.704 111.092 152.474C113.744 150.087 117.097 148.622 120.65 148.301C125.024 148.01 129.308 149.493 133.143 151.48C140.76 155.428 146.995 161.709 155.108 164.756C158.833 166.192 162.874 166.61 166.814 165.965C170.747 165.182 174.486 163.63 177.818 161.398C184.803 156.985 190.56 150.86 197.905 146.989C201.516 145.086 205.529 143.63 209.655 143.601C213.642 143.607 217.475 145.141 220.364 147.89C225.927 152.947 230.313 160.93 238.809 161.07C240.581 161.103 242.324 160.624 243.831 159.691C244.927 159.013 243.921 157.277 242.818 157.959C239.355 160.101 235.185 158.749 232.028 156.672C228.667 154.46 226.28 151.079 223.537 148.198C220.812 145.336 217.632 142.926 213.712 142.033C209.795 141.259 205.739 141.598 202.005 143.011C193.979 145.808 187.904 151.564 181.244 156.572C174.679 161.508 167.015 165.778 158.546 163.723C150.113 161.676 143.715 155.289 136.422 151.002C129.372 146.858 120.729 144.212 113.137 148.572C107.4 151.867 103.773 157.686 99.3671 162.426C97.1929 164.765 94.7685 166.939 91.8316 168.268C87.7509 170.114 83.139 169.899 78.8884 168.804C70.0217 166.522 62.5432 160.551 53.5144 158.765C46.8127 157.439 38.8805 159.109 34.7901 165.034C33.8856 166.355 33.2696 167.852 32.9822 169.426C32.7484 170.689 34.6816 171.23 34.9169 169.96Z" fill="#3F3D56"/>
<path d="M62.8661 174.341C67.6678 174.341 71.5604 170.448 71.5604 165.646C71.5604 160.844 67.6678 156.951 62.8661 156.951C58.0644 156.951 54.1719 160.844 54.1719 165.646C54.1719 170.448 58.0644 174.341 62.8661 174.341Z" fill="#6C63FF"/>
<path d="M125.398 155.947C130.2 155.947 134.092 152.054 134.092 147.252C134.092 142.45 130.2 138.557 125.398 138.557C120.596 138.557 116.704 142.45 116.704 147.252C116.704 152.054 120.596 155.947 125.398 155.947Z" fill="#6C63FF"/>
<path d="M211.003 149.928C215.805 149.928 219.697 146.035 219.697 141.232C219.697 136.43 215.805 132.537 211.003 132.537C206.201 132.537 202.309 136.43 202.309 141.232C202.309 146.035 206.201 149.928 211.003 149.928Z" fill="#6C63FF"/>
<path d="M136.424 296.297H117.353C116.305 296.296 115.291 295.917 114.499 295.229C113.708 294.541 113.191 293.59 113.043 292.552C111.866 283.886 111.866 275.101 113.043 266.435C113.188 265.411 113.693 264.471 114.467 263.785C115.241 263.099 116.234 262.711 117.268 262.689C123.477 259.354 129.949 259.354 136.506 262.689C137.131 262.7 137.747 262.847 138.31 263.12C138.873 263.393 139.37 263.785 139.766 264.269C140.181 264.776 140.478 265.368 140.635 266.003C140.792 266.638 140.806 267.3 140.675 267.942C139.143 275.566 139.143 283.42 140.675 291.044C140.806 291.685 140.792 292.348 140.635 292.983C140.478 293.618 140.181 294.21 139.766 294.716C139.361 295.212 138.851 295.61 138.273 295.884C137.695 296.157 137.063 296.298 136.424 296.297Z" fill="#6C63FF"/>
<path d="M224.035 35.6248H204.965C203.916 35.624 202.903 35.2448 202.111 34.5567C201.319 33.8687 200.802 32.918 200.655 31.8794C199.477 23.2134 199.477 14.428 200.655 5.76201C200.8 4.73584 201.307 3.79517 202.083 3.10885C202.86 2.42253 203.856 2.03552 204.892 2.01729C210.892 -0.67254 217.353 -0.672211 224.101 2.01696C224.729 2.0253 225.348 2.1711 225.914 2.44412C226.48 2.71713 226.98 3.11076 227.377 3.59735C227.792 4.10355 228.089 4.6958 228.246 5.33106C228.404 5.96632 228.417 6.62865 228.287 7.2699C226.755 14.8942 226.755 22.7472 228.287 30.3715C228.417 31.0128 228.404 31.6751 228.246 32.3103C228.089 32.9456 227.792 33.5378 227.377 34.044C226.973 34.5393 226.463 34.9381 225.885 35.2115C225.306 35.4849 224.675 35.6261 224.035 35.6248Z" fill="#6C63FF"/>
<path d="M72.0349 52.9946H52.9646C52.3251 52.996 51.6933 52.8548 51.1152 52.5814C50.537 52.3079 50.027 51.9091 49.6223 51.4139C49.2075 50.9077 48.9108 50.3155 48.7535 49.6802C48.5963 49.045 48.5825 48.3827 48.7132 47.7414C50.245 40.1171 50.245 32.2641 48.7132 24.6398C48.5825 23.9985 48.5962 23.3361 48.7535 22.7008C48.9107 22.0655 49.2075 21.4732 49.6223 20.9669C50.0186 20.4821 50.5158 20.0896 51.0794 19.8168C51.6429 19.544 52.2592 19.3973 52.8853 19.3872C58.683 16.5475 65.1475 16.5475 72.1018 19.3872C73.1391 19.4038 74.1364 19.7901 74.9142 20.4766C75.692 21.1631 76.1993 22.1047 76.3448 23.1319C77.5224 31.7978 77.5224 40.5831 76.3448 49.2489C76.1977 50.2876 75.6808 51.2384 74.889 51.9265C74.0973 52.6146 73.0838 52.9939 72.0349 52.9946Z" fill="#CCCCCC"/>
<path d="M222.038 11.9745H205.987C205.721 11.9745 205.466 11.8688 205.278 11.6806C205.089 11.4925 204.984 11.2373 204.984 10.9712C204.984 10.7051 205.089 10.4499 205.278 10.2617C205.466 10.0736 205.721 9.96788 205.987 9.96788H222.038C222.304 9.96788 222.559 10.0736 222.747 10.2617C222.935 10.4499 223.041 10.7051 223.041 10.9712C223.041 11.2373 222.935 11.4925 222.747 11.6806C222.559 11.8688 222.304 11.9745 222.038 11.9745Z" fill="white"/>
<path d="M222.038 20.0009H205.987C205.721 20.0009 205.466 19.8951 205.278 19.707C205.089 19.5188 204.984 19.2636 204.984 18.9976C204.984 18.7315 205.089 18.4763 205.278 18.2881C205.466 18.1 205.721 17.9943 205.987 17.9943H222.038C222.304 17.9943 222.559 18.1 222.747 18.2881C222.935 18.4763 223.041 18.7315 223.041 18.9976C223.041 19.2636 222.935 19.5188 222.747 19.707C222.559 19.8951 222.304 20.0009 222.038 20.0009Z" fill="white"/>
<path d="M222.038 28.0272H205.987C205.721 28.0272 205.466 27.9215 205.278 27.7333C205.089 27.5452 204.984 27.29 204.984 27.0239C204.984 26.7578 205.089 26.5026 205.278 26.3145C205.466 26.1263 205.721 26.0206 205.987 26.0206H222.038C222.304 26.0206 222.559 26.1263 222.747 26.3145C222.935 26.5026 223.041 26.7578 223.041 27.0239C223.041 27.29 222.935 27.5452 222.747 27.7333C222.559 27.9215 222.304 28.0272 222.038 28.0272Z" fill="white"/>
<path d="M72.3266 28.0272H56.2757C56.0096 28.0272 55.7545 27.9215 55.5664 27.7333C55.3782 27.5452 55.2725 27.29 55.2725 27.0239C55.2725 26.7578 55.3782 26.5026 55.5664 26.3145C55.7545 26.1263 56.0096 26.0206 56.2757 26.0206H72.3266C72.5927 26.0206 72.8479 26.1263 73.036 26.3145C73.2241 26.5026 73.3298 26.7578 73.3298 27.0239C73.3298 27.29 73.2241 27.5452 73.036 27.7333C72.8479 27.9215 72.5927 28.0272 72.3266 28.0272Z" fill="white"/>
<path d="M72.3266 36.0536H56.2757C56.0096 36.0536 55.7545 35.9479 55.5664 35.7597C55.3782 35.5716 55.2725 35.3164 55.2725 35.0503C55.2725 34.7842 55.3782 34.529 55.5664 34.3408C55.7545 34.1527 56.0096 34.047 56.2757 34.047H72.3266C72.5927 34.047 72.8479 34.1527 73.036 34.3408C73.2241 34.529 73.3298 34.7842 73.3298 35.0503C73.3298 35.3164 73.2241 35.5716 73.036 35.7597C72.8479 35.9479 72.5927 36.0536 72.3266 36.0536Z" fill="white"/>
<path d="M72.3266 44.08H56.2757C56.0096 44.08 55.7545 43.9742 55.5664 43.7861C55.3782 43.5979 55.2725 43.3428 55.2725 43.0767C55.2725 42.8106 55.3782 42.5554 55.5664 42.3672C55.7545 42.1791 56.0096 42.0734 56.2757 42.0734H72.3266C72.5927 42.0734 72.8479 42.1791 73.036 42.3672C73.2241 42.5554 73.3298 42.8106 73.3298 43.0767C73.3298 43.3428 73.2241 43.5979 73.036 43.7861C72.8479 43.9742 72.5927 44.08 72.3266 44.08Z" fill="white"/>
<path d="M135.193 270.825H119.142C118.876 270.825 118.621 270.719 118.433 270.531C118.244 270.343 118.139 270.088 118.139 269.822C118.139 269.555 118.244 269.3 118.433 269.112C118.621 268.924 118.876 268.818 119.142 268.818H135.193C135.459 268.818 135.714 268.924 135.902 269.112C136.09 269.3 136.196 269.555 136.196 269.822C136.196 270.088 136.09 270.343 135.902 270.531C135.714 270.719 135.459 270.825 135.193 270.825Z" fill="white"/>
<path d="M135.193 278.851H119.142C118.876 278.851 118.621 278.745 118.433 278.557C118.244 278.369 118.139 278.114 118.139 277.848C118.139 277.582 118.244 277.327 118.433 277.138C118.621 276.95 118.876 276.845 119.142 276.845H135.193C135.459 276.845 135.714 276.95 135.902 277.138C136.09 277.327 136.196 277.582 136.196 277.848C136.196 278.114 136.09 278.369 135.902 278.557C135.714 278.745 135.459 278.851 135.193 278.851Z" fill="white"/>
<path d="M135.193 286.878H119.142C118.876 286.878 118.621 286.772 118.433 286.584C118.244 286.396 118.139 286.14 118.139 285.874C118.139 285.608 118.244 285.353 118.433 285.165C118.621 284.977 118.876 284.871 119.142 284.871H135.193C135.459 284.871 135.714 284.977 135.902 285.165C136.09 285.353 136.196 285.608 136.196 285.874C136.196 286.14 136.09 286.396 135.902 286.584C135.714 286.772 135.459 286.878 135.193 286.878Z" fill="white"/>
<path d="M450.778 240.532L406.116 230.428L389.57 268.818L384.888 347.075L397.086 410.617H421.529L410.302 347.075L412.977 298.917L425.51 356.751L458.72 404.733L474.043 391.497L447.754 346.406C447.754 346.406 458.76 265.458 447.085 251.428L450.778 240.532Z" fill="#2F2E41"/>
<path d="M424.128 164.298L427.706 162.954L432.218 155.657L448.29 156.971L452.197 164.794L461.608 171.982L457.492 193.66L451.098 219.991L408.296 214.64L408.341 194.818C408.341 194.818 400.606 179.158 413.1 173.29L424.128 164.298Z" fill="#E6E6E6"/>
<path d="M358.152 233.055C358.983 233.388 359.877 233.536 360.771 233.486C361.665 233.437 362.537 233.192 363.326 232.769C364.115 232.346 364.802 231.756 365.338 231.038C365.874 230.321 366.247 229.495 366.429 228.619L414.154 199.738L405.431 189.672L361.262 221.226C359.769 221.017 358.251 221.363 356.997 222.199C355.742 223.034 354.837 224.301 354.454 225.759C354.07 227.217 354.235 228.765 354.917 230.11C355.598 231.454 356.749 232.502 358.152 233.055Z" fill="#A0616A"/>
<path d="M430.056 186.042C430.056 186.042 432.337 188.337 426.614 192.111C422.033 195.132 401.597 210.062 394.353 212.423C394.443 213.488 394.178 214.552 393.597 215.448C393.016 216.344 392.154 217.022 391.146 217.374L384.587 202.959C386.007 199.664 388.278 200.427 389.472 201.174L397.394 195.216L416.846 175.789L428.437 184.354L430.056 186.042Z" fill="#E6E6E6"/>
<path d="M356.916 235.392H337.845C337.206 235.393 336.574 235.252 335.996 234.979C335.418 234.705 334.908 234.306 334.503 233.811C334.088 233.305 333.792 232.713 333.634 232.077C333.477 231.442 333.463 230.78 333.594 230.139C335.126 222.514 335.126 214.661 333.594 207.037C333.463 206.396 333.477 205.733 333.634 205.098C333.792 204.463 334.088 203.87 334.503 203.364C334.899 202.879 335.397 202.487 335.96 202.214C336.524 201.941 337.14 201.794 337.766 201.784C343.564 198.945 350.028 198.945 356.983 201.784C358.02 201.801 359.017 202.187 359.795 202.874C360.573 203.56 361.08 204.502 361.226 205.529C362.403 214.195 362.403 222.98 361.226 231.646C361.079 232.685 360.562 233.636 359.77 234.324C358.978 235.012 357.965 235.391 356.916 235.392Z" fill="#6C63FF"/>
<path d="M357.207 210.424H341.157C340.89 210.424 340.635 210.319 340.447 210.131C340.259 209.942 340.153 209.687 340.153 209.421C340.153 209.155 340.259 208.9 340.447 208.712C340.635 208.523 340.89 208.418 341.157 208.418H357.207C357.473 208.418 357.729 208.523 357.917 208.712C358.105 208.9 358.211 209.155 358.211 209.421C358.211 209.687 358.105 209.942 357.917 210.131C357.729 210.319 357.473 210.424 357.207 210.424Z" fill="white"/>
<path d="M357.207 218.451H341.157C340.89 218.451 340.635 218.345 340.447 218.157C340.259 217.969 340.153 217.714 340.153 217.447C340.153 217.181 340.259 216.926 340.447 216.738C340.635 216.55 340.89 216.444 341.157 216.444H357.207C357.473 216.444 357.729 216.55 357.917 216.738C358.105 216.926 358.211 217.181 358.211 217.447C358.211 217.714 358.105 217.969 357.917 218.157C357.729 218.345 357.473 218.451 357.207 218.451Z" fill="white"/>
<path d="M357.207 226.477H341.157C340.89 226.477 340.635 226.371 340.447 226.183C340.259 225.995 340.153 225.74 340.153 225.474C340.153 225.208 340.259 224.953 340.447 224.764C340.635 224.576 340.89 224.471 341.157 224.471H357.207C357.473 224.471 357.729 224.576 357.917 224.764C358.105 224.953 358.211 225.208 358.211 225.474C358.211 225.74 358.105 225.995 357.917 226.183C357.729 226.371 357.473 226.477 357.207 226.477Z" fill="white"/>
<path d="M449.209 292.914H430.138C429.499 292.915 428.867 292.774 428.289 292.501C427.711 292.227 427.201 291.829 426.796 291.333C426.381 290.827 426.084 290.235 425.927 289.6C425.77 288.964 425.756 288.302 425.887 287.661C427.419 280.037 427.419 272.184 425.887 264.559C425.756 263.918 425.77 263.256 425.927 262.62C426.084 261.985 426.381 261.393 426.796 260.886C427.192 260.402 427.69 260.009 428.253 259.736C428.817 259.463 429.433 259.317 430.059 259.307C435.857 256.467 442.321 256.467 449.276 259.307C450.313 259.323 451.31 259.71 452.088 260.396C452.866 261.083 453.373 262.024 453.518 263.051C454.696 271.717 454.696 280.503 453.518 289.168C453.371 290.207 452.855 291.158 452.063 291.846C451.271 292.534 450.258 292.913 449.209 292.914Z" fill="#CCCCCC"/>
<path d="M449.5 267.947H433.449C433.183 267.947 432.928 267.841 432.74 267.653C432.552 267.465 432.446 267.209 432.446 266.943C432.446 266.677 432.552 266.422 432.74 266.234C432.928 266.046 433.183 265.94 433.449 265.94H449.5C449.766 265.94 450.022 266.046 450.21 266.234C450.398 266.422 450.504 266.677 450.504 266.943C450.504 267.209 450.398 267.465 450.21 267.653C450.022 267.841 449.766 267.947 449.5 267.947Z" fill="white"/>
<path d="M449.5 275.973H433.449C433.183 275.973 432.928 275.867 432.74 275.679C432.552 275.491 432.446 275.236 432.446 274.97C432.446 274.704 432.552 274.448 432.74 274.26C432.928 274.072 433.183 273.966 433.449 273.966H449.5C449.766 273.966 450.022 274.072 450.21 274.26C450.398 274.448 450.504 274.704 450.504 274.97C450.504 275.236 450.398 275.491 450.21 275.679C450.022 275.867 449.766 275.973 449.5 275.973Z" fill="white"/>
<path d="M449.5 283.999H433.449C433.183 283.999 432.928 283.894 432.74 283.706C432.552 283.517 432.446 283.262 432.446 282.996C432.446 282.73 432.552 282.475 432.74 282.287C432.928 282.099 433.183 281.993 433.449 281.993H449.5C449.766 281.993 450.022 282.099 450.21 282.287C450.398 282.475 450.504 282.73 450.504 282.996C450.504 283.262 450.398 283.517 450.21 283.706C450.022 283.894 449.766 283.999 449.5 283.999Z" fill="white"/>
<path d="M440.742 264.194C441.577 263.87 442.33 263.366 442.949 262.719C443.568 262.072 444.037 261.297 444.324 260.449C444.611 259.601 444.709 258.7 444.61 257.81C444.511 256.92 444.219 256.062 443.753 255.298L458.851 201.592L445.604 200.208L434.928 253.434C433.696 254.302 432.825 255.592 432.48 257.059C432.135 258.527 432.34 260.07 433.056 261.397C433.773 262.723 434.951 263.74 436.368 264.256C437.784 264.771 439.341 264.749 440.742 264.194Z" fill="#A0616A"/>
<path d="M461.084 172.111C461.084 172.111 464.317 172.227 462.719 178.894C461.44 184.231 456.741 217.712 453.067 224.388C453.86 225.103 454.393 226.061 454.582 227.112C454.771 228.164 454.605 229.248 454.11 230.194L439.47 224.155C438.254 220.779 439.196 217.714 440.578 217.443L442.289 207.678L444.81 174.922L458.748 171.986L461.084 172.111Z" fill="#E6E6E6"/>
<path d="M449.135 111.261C451.351 114.531 452.783 118.269 453.319 122.183C453.854 126.097 453.48 130.082 452.224 133.827" fill="#FD6584"/>
<path d="M527.222 438.204C527.222 438.309 527.202 438.412 527.162 438.509C527.122 438.606 527.063 438.694 526.989 438.768C526.915 438.842 526.828 438.9 526.731 438.94C526.634 438.98 526.531 439 526.426 439H338.971C338.867 439 338.763 438.979 338.667 438.939C338.57 438.899 338.482 438.841 338.408 438.767C338.334 438.693 338.276 438.605 338.236 438.509C338.196 438.412 338.175 438.309 338.175 438.204C338.175 438.1 338.196 437.996 338.236 437.899C338.276 437.803 338.334 437.715 338.408 437.641C338.482 437.567 338.57 437.509 338.667 437.469C338.763 437.429 338.867 437.408 338.971 437.408H526.426C526.531 437.408 526.634 437.428 526.731 437.468C526.828 437.508 526.916 437.567 526.989 437.64C527.063 437.714 527.122 437.802 527.162 437.899C527.202 437.996 527.222 438.099 527.222 438.204Z" fill="#CCCCCC"/>
</g>
<defs>
<clipPath id="clip0_7_147">
<rect width="544" height="439" fill="white"/>
</clipPath>
</defs>
</svg>
