<svg width="288" height="374" viewBox="0 0 288 374" fill="none" xmlns="http://www.w3.org/2000/svg">
<g clip-path="url(#clip0_17_1086)">
<path d="M203.682 103.264C203.682 105.395 203.613 107.509 203.475 109.605C202.7 121.693 199.646 133.525 194.472 144.479C194.432 144.572 194.385 144.659 194.346 144.746C194.105 145.254 193.857 145.761 193.603 146.263C192.065 149.36 190.358 152.372 188.491 155.283C179.961 168.649 168.269 179.708 154.449 187.484C140.629 195.26 125.106 199.512 109.251 199.866L110.207 254.819L122.672 248.257L124.898 252.487L110.301 260.171L112.085 362.233L112.105 363.596L102.468 364.404L102.488 364.371L105.522 199.873C92.7608 199.689 80.1632 196.974 68.4605 191.883C56.7578 186.792 46.1832 179.428 37.3506 170.218C36.7426 169.59 36.1409 168.941 35.5528 168.3C35.5261 168.273 35.5061 168.247 35.4859 168.226C28.1268 160.203 22.1751 150.995 17.8817 140.99C17.9754 141.097 18.0756 141.198 18.1693 141.305C8.46606 118.619 7.80796 93.0822 16.3298 69.9271C24.8517 46.7721 41.9082 27.7521 64.0042 16.7647C64.3384 16.5977 64.6794 16.4373 65.0136 16.2703C86.8706 5.7446 111.885 3.81328 135.1 10.8591C158.314 17.9049 178.033 33.4136 190.348 54.3111C190.937 55.3001 191.505 56.3091 192.053 57.3247C199.703 71.4275 203.701 87.2204 203.682 103.264Z" fill="#E5E5E5"/>
<path d="M132.523 364.629C148.42 364.629 161.307 351.745 161.307 335.851C161.307 319.958 148.42 307.074 132.523 307.074C116.626 307.074 103.739 319.958 103.739 335.851C103.739 351.745 116.626 364.629 132.523 364.629Z" fill="#2F2E41"/>
<path d="M166.543 355.633H140.756V364.376H166.543V355.633Z" fill="#2F2E41"/>
<path d="M166.725 364.376C168.234 364.376 169.458 361.114 169.458 357.09C169.458 353.067 168.234 349.805 166.725 349.805C165.216 349.805 163.992 353.067 163.992 357.09C163.992 361.114 165.216 364.376 166.725 364.376Z" fill="#2F2E41"/>
<path d="M160.528 354.965H134.74V363.708H160.528V354.965Z" fill="#2F2E41"/>
<path d="M160.71 363.708C162.219 363.708 163.443 360.446 163.443 356.422C163.443 352.398 162.219 349.137 160.71 349.137C159.201 349.137 157.977 352.398 157.977 356.422C157.977 360.446 159.201 363.708 160.71 363.708Z" fill="#2F2E41"/>
<path d="M104.602 309.089C102.277 298.683 109.707 288.167 121.196 285.602C132.685 283.038 143.882 289.395 146.206 299.801C148.531 310.208 140.916 314.046 129.428 316.61C117.939 319.175 106.926 319.495 104.602 309.089Z" fill="#6C63FF"/>
<path d="M143.586 334.213C142.081 334.243 140.604 333.8 139.364 332.946C138.124 332.092 137.183 330.87 136.675 329.453C136.647 329.37 136.636 329.282 136.642 329.195C136.648 329.107 136.671 329.021 136.711 328.943C136.75 328.864 136.804 328.794 136.87 328.737C136.936 328.679 137.013 328.635 137.096 328.607C137.179 328.579 137.267 328.568 137.355 328.574C137.442 328.58 137.528 328.603 137.607 328.642C137.685 328.681 137.755 328.735 137.813 328.801C137.871 328.868 137.915 328.944 137.943 329.028C138.955 332.04 142.419 333.615 145.665 332.538C147.277 332.013 148.615 330.873 149.389 329.366C149.722 328.717 149.921 328.008 149.977 327.281C150.033 326.554 149.943 325.823 149.714 325.131C149.686 325.047 149.675 324.96 149.681 324.872C149.687 324.785 149.71 324.699 149.749 324.62C149.788 324.542 149.842 324.472 149.908 324.414C149.975 324.357 150.051 324.312 150.135 324.284C150.218 324.257 150.306 324.245 150.393 324.251C150.481 324.257 150.566 324.281 150.645 324.32C150.724 324.359 150.794 324.413 150.851 324.479C150.909 324.545 150.953 324.622 150.981 324.705C151.267 325.564 151.379 326.471 151.311 327.374C151.243 328.276 150.997 329.156 150.585 329.963C149.651 331.787 148.034 333.169 146.086 333.807C145.28 334.075 144.436 334.212 143.586 334.213Z" fill="white"/>
<path d="M156.408 338.124C157.18 339.634 157.321 341.39 156.799 343.004C156.277 344.618 155.135 345.959 153.625 346.731C152.114 347.504 150.358 347.645 148.744 347.123C147.129 346.601 145.788 345.459 145.016 343.949L145.01 343.938C143.404 340.791 145.623 338.838 148.77 337.233C151.918 335.627 154.802 334.977 156.408 338.124Z" fill="white"/>
<path d="M259.14 364.888H4.49965C4.32239 364.888 4.15238 364.818 4.02704 364.693C3.9017 364.567 3.8313 364.397 3.8313 364.22C3.8313 364.043 3.9017 363.873 4.02704 363.748C4.15238 363.622 4.32239 363.552 4.49965 363.552H259.14C259.317 363.552 259.487 363.622 259.612 363.748C259.738 363.873 259.808 364.043 259.808 364.22C259.808 364.397 259.738 364.567 259.612 364.693C259.487 364.818 259.317 364.888 259.14 364.888Z" fill="#3F3D56"/>
<path d="M126.084 373.949C128.764 373.257 129.152 365.776 126.95 357.238C124.748 348.7 120.789 342.339 118.108 343.03C115.427 343.721 115.039 351.203 117.242 359.741C119.444 368.279 123.403 374.64 126.084 373.949Z" fill="#2F2E41"/>
<path d="M174.416 301.546H163.465C163.36 301.546 163.258 301.514 163.172 301.455C163.086 301.396 163.02 301.313 162.983 301.215C162.945 301.118 162.938 301.011 162.962 300.91C162.986 300.809 163.04 300.717 163.118 300.647L173.076 291.63H163.875C163.738 291.63 163.607 291.575 163.51 291.478C163.413 291.381 163.359 291.25 163.359 291.113C163.359 290.976 163.413 290.845 163.51 290.748C163.607 290.651 163.738 290.597 163.875 290.597H174.416C174.52 290.597 174.622 290.628 174.708 290.687C174.794 290.746 174.86 290.83 174.898 290.927C174.935 291.025 174.942 291.131 174.918 291.233C174.894 291.334 174.84 291.426 174.763 291.496L164.804 300.513H174.416C174.553 300.513 174.684 300.567 174.781 300.664C174.878 300.761 174.932 300.893 174.932 301.029C174.932 301.166 174.878 301.298 174.781 301.395C174.684 301.491 174.553 301.546 174.416 301.546Z" fill="#CBCBCB"/>
<path d="M188.36 285.539H177.409C177.305 285.539 177.203 285.507 177.117 285.448C177.031 285.389 176.964 285.306 176.927 285.208C176.889 285.111 176.882 285.005 176.906 284.903C176.93 284.802 176.985 284.71 177.062 284.64L187.021 275.623H177.82C177.683 275.623 177.551 275.568 177.454 275.472C177.357 275.375 177.303 275.243 177.303 275.106C177.303 274.969 177.357 274.838 177.454 274.741C177.551 274.644 177.683 274.59 177.82 274.59H188.36C188.464 274.59 188.566 274.622 188.652 274.681C188.738 274.74 188.805 274.823 188.842 274.921C188.88 275.018 188.887 275.124 188.863 275.226C188.839 275.327 188.784 275.419 188.707 275.489L178.748 284.506H188.36C188.497 284.506 188.628 284.561 188.725 284.658C188.822 284.754 188.877 284.886 188.877 285.023C188.877 285.16 188.822 285.291 188.725 285.388C188.628 285.485 188.497 285.539 188.36 285.539Z" fill="#CBCBCB"/>
<path d="M182.163 267.983H171.211C171.107 267.983 171.005 267.952 170.919 267.893C170.833 267.834 170.767 267.75 170.729 267.653C170.692 267.555 170.685 267.449 170.709 267.347C170.733 267.246 170.787 267.154 170.865 267.084L180.823 258.067H171.622C171.485 258.067 171.354 258.013 171.257 257.916C171.16 257.819 171.106 257.688 171.106 257.551C171.106 257.414 171.16 257.282 171.257 257.185C171.354 257.089 171.485 257.034 171.622 257.034H182.163C182.267 257.034 182.369 257.066 182.455 257.125C182.541 257.184 182.607 257.268 182.645 257.365C182.682 257.462 182.689 257.569 182.665 257.67C182.641 257.771 182.587 257.863 182.509 257.933L172.551 266.95H182.163C182.3 266.95 182.431 267.005 182.528 267.102C182.625 267.199 182.679 267.33 182.679 267.467C182.679 267.604 182.625 267.735 182.528 267.832C182.431 267.929 182.3 267.983 182.163 267.983Z" fill="#CBCBCB"/>
<path d="M258.061 118.524L266.613 111.686C259.97 110.953 257.24 114.575 256.123 117.442C250.933 115.288 245.283 118.111 245.283 118.111L262.393 124.322C261.53 122.017 260.027 120.005 258.061 118.524Z" fill="#3F3D56"/>
<path d="M12.7783 6.9338L21.3297 0.0957631C14.6865 -0.637002 11.9569 2.98526 10.8398 5.85233C5.64986 3.69774 0 6.52145 0 6.52145L17.1097 12.7316C16.2466 10.4266 14.744 8.41539 12.7783 6.9338Z" fill="#3F3D56"/>
<path d="M279.449 30.3209L288 23.4829C281.357 22.7501 278.627 26.3724 277.51 29.2395C272.32 27.0849 266.67 29.9086 266.67 29.9086L283.78 36.1187C282.917 33.8137 281.414 31.8025 279.449 30.3209Z" fill="#3F3D56"/>
</g>
<defs>
<clipPath id="clip0_17_1086">
<rect width="288" height="374" fill="white"/>
</clipPath>
</defs>
</svg>
